<svg width="762" height="88" viewBox="0 0 762 88" fill="none" xmlns="http://www.w3.org/2000/svg">
<path d="M43.3986 86.7895H26.0876V17.37H0V0H69.4257V17.37H43.3986V86.7895Z" fill="white"/>
<path d="M151.841 52.11V34.74C151.841 32.3595 151.377 30.1201 150.449 28.022C149.561 25.8835 148.33 24.0275 146.756 22.4539C145.183 20.8803 143.326 19.6497 141.188 18.762C139.089 17.834 136.85 17.37 134.469 17.37C132.088 17.37 129.829 17.834 127.69 18.762C125.592 19.6497 123.756 20.8803 122.182 22.4539C120.608 24.0275 119.357 25.8835 118.429 28.022C117.541 30.1201 117.098 32.3595 117.098 34.74V52.11H151.841ZM169.212 86.7895H151.841V69.4195H117.098V86.7895H99.7866V34.74C99.7866 29.9386 100.694 25.4397 102.51 21.2435C104.326 17.0069 106.788 13.315 109.895 10.1678C113.042 7.02063 116.714 4.5392 120.911 2.72352C125.148 0.90784 129.667 0 134.469 0C139.271 0 143.77 0.90784 147.967 2.72352C152.204 4.5392 155.896 7.02063 159.044 10.1678C162.191 13.315 164.673 17.0069 166.489 21.2435C168.304 25.4397 169.212 29.9386 169.212 34.74V86.7895Z" fill="white"/>
<path d="M269.846 86.7895H209.076V0H226.448V69.4195H269.846V86.7895Z" fill="white"/>
<path d="M321.089 86.7895H303.718V0H321.089V86.7895Z" fill="white"/>
<path d="M448.174 61.9752C448.174 65.5663 447.488 68.9555 446.116 72.1431C444.784 75.2902 442.928 78.0541 440.548 80.4347C438.207 82.7749 435.443 84.6309 432.255 86.0028C429.108 87.3343 425.738 88 422.147 88C418.919 88 415.812 87.4351 412.826 86.3054C409.88 85.1756 407.217 83.5213 404.836 81.3425C402.455 83.5213 399.772 85.1756 396.786 86.3054C393.8 87.4351 390.693 88 387.464 88C383.873 88 380.483 87.3343 377.296 86.0028C374.148 84.6309 371.384 82.7749 369.003 80.4347C366.663 78.0541 364.807 75.2902 363.435 72.1431C362.103 68.9555 361.437 65.5663 361.437 61.9752V0H378.809V61.9752C378.809 63.1857 379.031 64.3356 379.475 65.425C379.919 66.4741 380.524 67.4021 381.291 68.2091C382.098 68.9757 383.026 69.5809 384.075 70.0248C385.124 70.4686 386.254 70.6905 387.464 70.6905C388.675 70.6905 389.805 70.4686 390.854 70.0248C391.903 69.5809 392.811 68.9757 393.578 68.2091C394.385 67.4021 395.01 66.4741 395.454 65.425C395.898 64.3356 396.12 63.1857 396.12 61.9752V0H413.491V61.9752C413.491 63.1857 413.713 64.3356 414.157 65.425C414.601 66.4741 415.206 67.4021 415.973 68.2091C416.78 68.9757 417.708 69.5809 418.757 70.0248C419.807 70.4686 420.936 70.6905 422.147 70.6905C423.358 70.6905 424.487 70.4686 425.537 70.0248C426.586 69.5809 427.494 68.9757 428.26 68.2091C429.067 67.4021 429.693 66.4741 430.137 65.425C430.621 64.3356 430.863 63.1857 430.863 61.9752V0H448.174V61.9752Z" fill="white"/>
<path d="M539.608 52.11V34.74C539.608 32.3595 539.144 30.1201 538.216 28.022C537.328 25.8835 536.097 24.0275 534.523 22.4539C532.95 20.8803 531.093 19.6497 528.955 18.762C526.856 17.834 524.617 17.37 522.236 17.37C519.855 17.37 517.596 17.834 515.457 18.762C513.359 19.6497 511.523 20.8803 509.949 22.4539C508.375 24.0275 507.124 25.8835 506.196 28.022C505.309 30.1201 504.865 32.3595 504.865 34.74V52.11H539.608ZM556.979 86.7895H539.608V69.4195H504.865V86.7895H487.554V34.74C487.554 29.9386 488.462 25.4397 490.277 21.2435C492.093 17.0069 494.555 13.315 497.662 10.1678C500.809 7.02063 504.481 4.5392 508.678 2.72352C512.915 0.90784 517.434 0 522.236 0C527.038 0 531.537 0.90784 535.734 2.72352C539.971 4.5392 543.663 7.02063 546.811 10.1678C549.958 13.315 552.44 17.0069 554.256 21.2435C556.071 25.4397 556.979 29.9386 556.979 34.74V86.7895Z" fill="white"/>
<path d="M614.215 17.37V52.11H631.586C633.967 52.11 636.207 51.6662 638.305 50.7785C640.403 49.8505 642.239 48.5997 643.813 47.0261C645.387 45.4525 646.617 43.6167 647.505 41.5186C648.433 39.3801 648.897 37.1206 648.897 34.74C648.897 32.3595 648.433 30.1201 647.505 28.022C646.617 25.8835 645.387 24.0275 643.813 22.4539C642.239 20.8803 640.403 19.6497 638.305 18.762C636.207 17.834 633.967 17.37 631.586 17.37H614.215ZM614.215 86.7895H596.843V0H631.586C634.774 0 637.841 0.423659 640.786 1.27098C643.732 2.07795 646.476 3.24805 649.018 4.78129C651.601 6.27419 653.941 8.08987 656.04 10.2283C658.178 12.3265 659.994 14.6667 661.487 17.249C663.02 19.8313 664.191 22.5951 664.998 25.5406C665.845 28.486 666.269 31.5525 666.269 34.74C666.269 37.7258 665.885 40.6309 665.119 43.4553C664.392 46.2797 663.323 48.9629 661.911 51.5048C660.539 54.0468 658.844 56.387 656.826 58.5254C654.809 60.6639 652.549 62.5199 650.047 64.0935L659.671 86.7895H641.21L633.644 69.2985L614.215 69.4195V86.7895Z" fill="white"/>
<path d="M762 86.7895H702.501V0H762V17.37H719.872V34.74H748.381V52.11H719.872V69.4195H762V86.7895Z" fill="white"/>
</svg>
